<?xml version="1.0" encoding="UTF-8"?>
<svg xmlns="http://www.w3.org/2000/svg" viewBox="0 0 841.89 595.28">
  <defs>
    <style>
      .cls-1 {
        fill: #962c27;
      }

      .cls-2 {
        fill: #f1f2f2;
      }

      .cls-3 {
        fill: #ac2a25;
      }

      .cls-4 {
        fill: #b83427;
      }

      .cls-5 {
        fill: #e6e7e8;
      }

      .cls-6 {
        fill: none;
        stroke: #231f20;
        stroke-miterlimit: 10;
        stroke-width: 6px;
      }

      .cls-7 {
        fill: #231f20;
      }
    </style>
  </defs>
  <g id="Kropp">
    <path id="KroppOransje" class="cls-4" d="M589.65,201.73c-10.17-10.82-129.46-134.45-256.09-106.15-44.16,9.87-82.47,36.76-135.56,73.85-33.75,23.58-52.62,41.35-65.93,66.99-19.73,38.01-21.39,82.08-11.6,85.98,7.99,3.18,17.29-22.96,46.95-36.92,26.06-12.27,41.87,3.24,62.77-5.8,27.9-12.07,16.91-45.48,39.56-68.04,29.89-29.78,81.79-8.81,166.68-2.64,36.05,2.62,88.42,3.3,153.23-7.25Z"/>
    <path id="KroppSvart" class="cls-7" d="M133.12,303.92c-11.46-10.77,5.31-53.89,32.18-81.23,23.86-24.28,52.16-32.51,72.79-38.51,31.04-9.03,55.89-7.38,63.3-6.86,16.02,1.13,71.77,5.07,81.49,32.77,5.29,15.08-8.65,21.29-16.62,54.79-10.63,44.74,5.01,72.46-7.98,79.78-2.41,1.36-6.94,2.65-46.88-16.42-21.1-10.07-25.27-13.03-35.8-18-16.56-7.82-45.9-21.67-77.6-21.1-39.19,.71-56.01,23.11-64.88,14.77Z"/>
  </g>
  <g id="Personlighet">
    <path id="Hale" class="cls-1" d="M586.35,386.21c7.73,14.17-58.51,89.28-138.46,104.84-67.74,13.17-137-18.02-196.22-44.7-37.85-17.05-63.99-35.13-107.6-34.81-18.33,.13-30.71,3.45-41.93-5.14-21.15-16.19-22.07-62.32-2.77-91.38,24.81-37.36,77.68-38.46,92.57-38.77,64.94-1.35,76.22,37.49,178.81,71.6,17.79,5.92,42.1,12.95,67.25,33.63,22.87,18.8,20.26,27.38,33.63,30.86,29.07,7.56,51.44-30.44,101.67-29.27,10.84,.25,12.46,2.08,13.05,3.16Z"/>
  </g>
  <g id="Hode">
    <path id="Hode-2" data-name="Hode" class="cls-3" d="M453.43,164.27c-52.05,11.55-111.9,53.98-116.31,111.96-2.25,29.57,10.75,52.33,17.01,63.3,27.28,47.76,82.38,75.53,134.9,76.75,52.18,1.21,132.21-23.07,149.93-89.01,18.13-67.44-41.02-133.49-96.92-156.26-41.1-16.74-77.97-9.09-88.62-6.73Z"/>
    <path id="VenstreKinn" class="cls-2" d="M439.32,323.18c-6.08,3.2-14.57,8.93-17.67,18.46-5.13,15.78,8.18,29.84,5.01,32.44-5.78,4.75-58.6-35.37-50.37-56.97,1.35-3.53,3.34-3.99,22.42-14.51,26.7-14.72,34.09-20.06,49.58-23.74,17.1-4.06,22.02-.85,24,1.05,2.33,2.24,3.16,6.53,4.75,15.03,1.96,10.51,2.93,15.76,1.05,21.36-.57,1.69-2.82,8.83-9.23,12.4-11.95,6.65-28.14-4.54-29.54-5.54Z"/>
    <path id="MidtKinn" class="cls-2" d="M481.25,316.85c-9.57,6.22-6.12,15.3-15.82,22.15-11.8,8.34-23.39-.5-29.8,6.33-7.96,8.49,.47,32.23,13.19,46.68,2.8,3.18,18.34,20.15,41.93,20.84,40.05,1.16,71.39-45.57,64.62-57.76-4.19-7.54-21.95-.08-31.91-12.4-6.74-8.33-1.84-15.74-8.97-22.95-7.75-7.84-23.54-9.2-33.23-2.9Z"/>
    <path id="HøyreKinn" class="cls-2" d="M520.55,280.98c-9.44,5.19-9.57,28.29,0,42.99,1.39,2.14,9.44,14.51,20.57,14.51,9.36,0,12.62-8.75,18.46-7.12,7.75,2.16,13.35,20.74,7.65,34.81-5.5,13.57-19.28,17.44-17.67,22.68,1.25,4.08,10.83,5.69,18.46,4.48,19.76-3.12,39.23-27.09,36.4-49.32-1.88-14.75-13.04-24.51-24.53-34.55-8.12-7.1-15.09-10.77-27.69-17.41-17.64-9.29-26.46-13.93-31.65-11.08Z"/>
    <path id="Snut" class="cls-7" d="M493.52,349.02c-9.25,.3-18.12,8.17-18.46,18.59-.32,9.7,6.85,18.15,16.35,19.65,10.17,1.6,19.61-5.31,21.76-14.24,2.82-11.73-7.53-24.39-19.65-24Z"/>
    <path id="VenstreØre" class="cls-5" d="M360.46,265.15c5.78,2.01,9.8-2.4,30.46-15.43,35.33-22.28,44.31-22.48,46.68-32.44,3.99-16.75-17.08-34.45-22.79-39.24-18.52-15.56-51.28-28.53-65.43-15.75-7.31,6.61-6.06,21.02-3.56,49.85,2.62,30.23,4.29,49.42,14.64,53.01Z"/>
    <path id="HøyreØre" class="cls-5" d="M638.18,172.19c-63.67,12.05-70.93,14.8-72.79,22.15-1.51,5.96,1.43,11.4,5.54,18.99,6.8,12.57,14.08,14.46,27.69,27.69,17.03,16.55,19.25,26.83,25.32,25.71,3.85-.71,4.5-5.12,14.64-29.27,6.24-14.87,9.37-22.31,11.47-25.71,7.37-11.92,12.89-15.02,12.66-22.95-.17-5.66-3.21-11.5-7.91-14.64-5.87-3.91-12.94-2.67-16.62-1.98Z"/>
    <path id="Smil" class="cls-7" d="M528.47,397.11c-.37,.41-15.79-5.18-37.71-4.79-17.23,.31-28.98,4.14-29.27,3.79-.32-.38,13.11-5.53,30.73-5.79,20.76-.3,36.65,6.36,36.26,6.78Z"/>
    <line id="_ØyeVenstre1" data-name="ØyeVenstre1" class="cls-6" x1="472.29" y1="305.51" x2="450.66" y2="334.78"/>
    <line id="_ØyeVenstre2" data-name="ØyeVenstre2" class="cls-6" x1="446.18" y1="307.09" x2="475.04" y2="328.19"/>
    <line id="_ØyeHøyre1" data-name="ØyeHøyre1" class="cls-6" x1="546.82" y1="304.07" x2="525.19" y2="333.34"/>
    <line id="_ØyeHøyre2" data-name="ØyeHøyre2" class="cls-6" x1="520.71" y1="305.65" x2="549.58" y2="326.75"/>
  </g>
</svg>